<svg xmlns="http://www.w3.org/2000/svg" enable-background="new 0 0 510 510.03" viewBox="0 0 510 510.03" id="pet-house"><g><g><g><g><path fill="#da5461" d="M255 280.03c-46.869 0-85 38.131-85 85v135c0 5.522 4.477 10 10 10s10-4.478 10-10v-135c0-35.841 29.159-65 65-65s65 29.159 65 65v135c0 5.522 4.478 10 10 10s10-4.478 10-10v-135C340 318.161 301.869 280.03 255 280.03zM235.347 250.03h39.307c8.058 0 15.951-3.306 21.658-9.069 15.025-15.176 9.767-40.394-9.673-48.581-.547-.23-.972-.635-1.137-1.083-4.685-12.72-16.942-21.267-30.502-21.267s-25.817 8.546-30.502 21.266c-.165.449-.59.854-1.137 1.085-11.035 4.647-18.241 15.382-18.36 27.349C204.835 236.596 218.871 250.03 235.347 250.03zM231.123 210.812c5.641-2.376 10.066-6.969 12.143-12.604 1.802-4.892 6.518-8.179 11.734-8.179s9.933 3.287 11.734 8.18c2.076 5.634 6.502 10.227 12.142 12.602 3.681 1.55 6.084 5.128 6.123 9.115.057 5.567-4.82 10.103-10.346 10.103h-39.307c-5.512 0-10.403-4.522-10.346-10.104C225.04 215.94 227.443 212.362 231.123 210.812zM199.875 180.03h.25c5.523 0 10-4.477 10-10s-4.477-10-10-10h-.25c-5.523 0-10 4.477-10 10S194.352 180.03 199.875 180.03zM234.375 150.03h.25c5.523 0 10-4.477 10-10s-4.477-10-10-10h-.25c-5.523 0-10 4.477-10 10S228.852 150.03 234.375 150.03zM275.375 150.03h.25c5.522 0 10-4.477 10-10s-4.478-10-10-10h-.25c-5.522 0-10 4.477-10 10S269.853 150.03 275.375 150.03zM309.875 180.03h.25c5.522 0 10-4.477 10-10s-4.478-10-10-10h-.25c-5.522 0-10 4.477-10 10S304.353 180.03 309.875 180.03z"></path></g><g><path fill="#283954" d="M483.988,428.359c-2.492-1.05-4.419-3.004-5.287-5.36c-4.919-13.355-15.666-23.49-28.701-27.958
					v-209.08l12.326,7.546C483.263,206.335,510,191.224,510,166.8c0-10.943-5.726-21.082-14.969-26.709L275.88,5.91
					C263-1.971,246.998-1.97,234.118,5.912L14.975,140.088C5.737,145.735,0,155.97,0,166.8c0,17.287,14.068,31.35,31.36,31.35
					c5.711,0,11.351-1.605,16.312-4.641L60,185.961v94.068c0,5.522,4.478,10,10,10s10-4.478,10-10V173.717L244.56,72.97
					c6.438-3.939,14.44-3.941,20.879-0.001l48.33,29.59c4.711,2.886,10.866,1.403,13.75-3.307c2.884-4.711,1.403-10.866-3.307-13.75
					L275.88,55.91c-12.88-7.881-28.882-7.88-41.762,0.001L37.229,176.451c-1.842,1.127-3.816,1.699-5.869,1.699
					c-5.464,0-11.36-4.339-11.36-11.35c0-3.913,2.071-7.609,5.412-9.652L244.56,22.97c6.438-3.94,14.44-3.941,20.879-0.001
					L484.61,157.162c7.135,4.343,7.384,15.156-0.398,19.514c-1.74,0.974-6.337,2.903-11.442-0.225l-114.46-70.07
					c-4.709-2.884-10.866-1.402-13.749,3.308c-2.884,4.71-1.403,10.866,3.308,13.75L430,173.718v219.09
					c-17.387,1.895-32.57,13.545-38.701,30.191c-0.868,2.356-2.795,4.31-5.287,5.36c-24.307,10.236-33.42,39.801-19.396,61.671
					H143.384c14.017-21.857,4.924-51.43-19.396-61.671c-2.492-1.05-4.419-3.004-5.287-5.36
					C112.57,406.353,97.387,394.702,80,392.808V320.03c0-5.522-4.478-10-10-10s-10,4.478-10,10v75.011
					c-13.035,4.467-23.782,14.603-28.701,27.958c-0.868,2.356-2.795,4.31-5.287,5.36C10.379,434.942,0.17,450.15,0.003,467.101
					c-0.239,23.892,19.723,42.929,43.061,42.929c8.997,0,400.962,0,423.873,0c23.327,0,43.299-19.027,43.061-42.928
					C509.83,450.15,499.621,434.942,483.988,428.359z M123.478,483.073c-4.378,4.421-10.406,6.957-16.541,6.957H43.063
					c-12.297,0-23.187-10.054-23.063-22.73c0.089-8.973,5.495-17.022,13.772-20.509c7.578-3.191,13.517-9.344,16.293-16.88
					C53.896,419.515,63.916,412.53,75,412.53s21.104,6.985,24.934,17.381c2.776,7.536,8.715,13.688,16.293,16.88
					C130.506,452.805,134.95,471.487,123.478,483.073z M466.936,490.03h-63.873c-12.297,0-23.187-10.054-23.063-22.73
					c0.089-8.973,5.495-17.022,13.772-20.509c7.578-3.191,13.517-9.344,16.293-16.88c3.829-10.395,13.85-17.381,24.934-17.381
					s21.104,6.985,24.934,17.381c2.776,7.536,8.715,13.688,16.293,16.88c8.277,3.486,13.684,11.536,13.772,20.51
					C490.124,479.978,479.233,490.03,466.936,490.03z"></path></g></g></g></g></svg>