<svg xmlns="http://www.w3.org/2000/svg" enable-background="new 0 0 510 480" viewBox="0 0 510 480" id="comb"><g><g><g><path fill="#283954" d="M209.795,277.606L182.148,28.773C180.312,12.264,166.343,0,150,0
				c-16.502,0-30.323,12.37-32.148,28.775l-12.07,108.62c-0.61,5.489,3.345,10.434,8.834,11.043
				c5.482,0.616,10.433-3.345,11.043-8.834l12.07-108.618C138.426,24.723,143.701,20,150,20c6.252,0,11.573,4.708,12.271,10.984
				L188.827,270h-77.655l10.066-90.637c0.61-5.488-3.346-10.433-8.835-11.042c-5.482-0.621-10.434,3.346-11.042,8.835
				L90.225,277.421L60.809,346.06c-2.836,6.618,2.055,13.942,9.187,13.942c3.88,0,7.571-2.272,9.196-6.063L106.594,290h86.758
				l27.459,63.945c1.627,3.789,5.316,6.058,9.193,6.058c7.12,0,12.032-7.317,9.184-13.948L209.795,277.606z"></path><path fill="#283954" d="M160 240c0-5.388-4.371-10.003-9.996-10.003-5.585 0-10.004 4.574-10.004 10.003 0 5.587 4.576 10 10 10C155.468 250 160 245.54 160 240zM500 107.14c5.522 0 10-4.478 10-10V40c0-22.056-17.944-40-40-40H320c-16.542 0-30 13.458-30 30 0 16.575 13.425 30 30 30h90c5.514 0 10 4.486 10 10 0 5.52-4.479 10-10 10h-90c-16.542 0-30 13.458-30 30 0 16.575 13.425 30 30 30h90c5.514 0 10 4.486 10 10 0 5.52-4.479 10-10 10h-90c-16.542 0-30 13.458-30 30 0 16.575 13.425 30 30 30h90c5.514 0 10 4.486 10 10 0 5.52-4.479 10-10 10h-90c-16.542 0-30 13.458-30 30 0 16.575 13.425 30 30 30h80c11.028 0 20 8.972 20 20v115c0 24.814 20.186 45 45 45 24.873 0 45-20.123 45-45V137.14c0-5.522-4.478-10-10-10s-10 4.478-10 10V435c0 13.82-11.177 25-25 25-13.785 0-25-11.215-25-25V320c0-22.056-17.944-40-40-40h-80c-5.52 0-10-4.479-10-10 0-5.514 4.486-10 10-10h90c16.575 0 30-13.425 30-30 0-16.542-13.458-30-30-30h-90c-5.52 0-10-4.479-10-10 0-5.514 4.486-10 10-10h90c16.575 0 30-13.425 30-30 0-16.542-13.458-30-30-30h-90c-5.52 0-10-4.479-10-10 0-5.514 4.486-10 10-10h90c16.575 0 30-13.425 30-30 0-16.542-13.458-30-30-30h-90c-5.52 0-10-4.479-10-10 0-5.514 4.486-10 10-10h150c11.028 0 20 8.972 20 20v57.14C490 102.662 494.478 107.14 500 107.14z"></path><g><path fill="#da5461" d="M70 340c-38.598 0-70 31.402-70 70s31.402 70 70 70c38.598 0 70-31.402 70-70S108.598 340 70 340zM70 460c-27.57 0-50-22.43-50-50s22.43-50 50-50c27.57 0 50 22.43 50 50S97.57 460 70 460zM230 340c-38.598 0-70 31.402-70 70s31.402 70 70 70 70-31.402 70-70S268.598 340 230 340zM230 460c-27.57 0-50-22.43-50-50s22.43-50 50-50 50 22.43 50 50S257.57 460 230 460z"></path></g></g></g></g></svg>