<svg xmlns="http://www.w3.org/2000/svg" enable-background="new 0 0 510 430.052" viewBox="0 0 510 430.052" id="pet-food"><g><g><g><g><path fill="#da5461" d="M415.846 59.936c-4.449-2.657-7.709-6.648-9.178-11.238C393.331 7.028 346.4-11.375 308.804 7.382c-5.513 2.752-12.094 2.753-17.608 0-25.352-12.648-55.579-8.817-77.006 9.761-5.118 4.438-11.969 6.205-18.317 4.728-25.734-5.987-52.315 2.85-69.372 23.065-2.861 3.393-6.766 5.751-10.993 6.642C83.344 58.352 60 87.151 60 120.054c0 5.522 4.477 10 10 10 5.522 0 10-4.478 10-10 0-23.501 16.667-44.069 39.63-48.907 8.567-1.805 16.436-6.534 22.156-13.315 12.187-14.442 31.173-20.76 49.554-16.481 12.572 2.921 26.011-.478 35.951-9.097 15.3-13.268 36.879-16.004 54.976-6.976 11.103 5.54 24.362 5.539 35.466 0 26.792-13.364 60.351-.281 69.887 29.516 2.955 9.232 9.338 17.157 17.974 22.315C420.876 86.233 430 102.288 430 120.054c0 5.522 4.478 10 10 10s10-4.478 10-10C450 95.55 436.913 72.515 415.846 59.936zM335 200.17c-16.655 0-31.129 10.114-37.1 25h-85.801c-5.971-14.886-20.444-25-37.099-25-22.056 0-40 17.944-40 40 0 5.153 1 10.253 2.921 15-1.921 4.747-2.921 9.846-2.921 15 0 22.056 17.944 40 40 40 16.655 0 31.129-10.114 37.099-25H297.9c5.971 14.886 20.444 25 37.1 25 22.056 0 40-17.944 40-40 0-5.154-1-10.253-2.921-15 1.921-4.747 2.921-9.847 2.921-15C375 218.114 357.056 200.17 335 200.17zM352.322 260.18c1.752 3.026 2.678 6.481 2.678 9.99 0 11.028-8.972 20-20 20-9.804 0-18.096-7.005-19.715-16.655-.809-4.816-4.979-8.345-9.862-8.345H204.577c-4.884 0-9.054 3.528-9.862 8.345-1.619 9.65-9.911 16.655-19.715 16.655-11.028 0-20-8.972-20-20 0-3.509.926-6.964 2.678-9.99 1.794-3.099 1.794-6.92.001-10.019-1.753-3.028-2.679-6.482-2.679-9.991 0-11.028 8.972-20 20-20 9.804 0 18.096 7.005 19.715 16.655.809 4.816 4.979 8.345 9.862 8.345h100.846c4.884 0 9.054-3.528 9.862-8.345 1.619-9.65 9.911-16.655 19.715-16.655 11.028 0 20 8.972 20 20 0 3.509-.926 6.963-2.679 9.991C350.528 253.259 350.528 257.081 352.322 260.18z"></path></g><g><path fill="#283954" d="M478.243,342.026l-17.398-174.01C472.041,163.658,480,152.77,480,140.052
					c0-16.575-13.425-30-30-30H60c-16.542,0-30,13.458-30,30c0,12.808,7.997,23.653,19.153,27.977L31.755,342.044
					C13.386,347.713,0,364.847,0,385.052c0,24.873,20.123,45,45,45h300c5.522,0,10-4.478,10-10s-4.478-10-10-10H45
					c-13.82,0-25-11.177-25-25c0-13.785,11.215-25,25-25h420c13.82,0,25,11.177,25,25c0,13.785-11.215,25-25,25h-80
					c-5.522,0-10,4.478-10,10s4.478,10,10,10h80c24.814,0,45-20.186,45-45C510,364.633,496.464,347.608,478.243,342.026z
					 M194.33,170.052h246.62l16.997,170H52.053l16.997-170h85.28c5.522,0,10-4.477,10-10s-4.478-10-10-10H60c-5.52,0-10-4.479-10-10
					c0-5.514,4.486-10,10-10h390c5.52,0,10,4.479,10,10c0,5.514-4.486,10-10,10H194.33c-5.523,0-10,4.477-10,10
					S188.808,170.052,194.33,170.052z"></path></g></g></g></g></svg>