<svg xmlns="http://www.w3.org/2000/svg" enable-background="new 0 0 509.837 450.005" viewBox="0 0 509.837 450.005" id="dog"><g><g><g><g><path fill="#da5461" d="M132.449 50.011h-.15c-43.261 0-74.118 7.912-97.101 24.899-3.012 2.174-46.472 34.804-32.402 96.098 4.315 22.058 14.582 56.993 27.485 75.744.907 1.305 9.243 12.745 22.261 12.745.004 0 .009 0 .013 0 5.877-.004 14.564-2.435 22.604-13.979l15.909-22.203c3.217-4.489 2.185-10.736-2.305-13.953-4.49-3.217-10.737-2.184-13.953 2.305-21.118 29.475-14.84 20.65-16.035 22.382-2.778 4.002-5.083 5.436-6.213 5.448-.007.001-.014.001-.021.001-1.8 0-4.601-2.478-5.823-4.141-15.447-23.063-24.232-67.87-24.319-68.318-.023-.12-.049-.24-.076-.359-11.299-48.895 23.124-74.497 24.557-75.536.054-.038.107-.076.16-.115 19.37-14.339 46.463-21.018 85.26-21.018h.15c5.522 0 10-4.477 10-10C142.449 54.488 137.971 50.011 132.449 50.011zM474.638 74.92c-32.12-23.732-76.261-24.563-90.771-24.836-5.48-.106-10.083 4.288-10.187 9.81-.104 5.522 4.288 10.083 9.81 10.186 12.94.244 52.32.986 79.31 20.96.027.02.094.068.121.087 1.471 1.066 35.893 26.669 24.595 75.563-.027.119-.053.239-.076.359-.087.45-8.829 45.158-24.295 68.283-1.29 1.737-4.061 4.176-5.848 4.176-.007 0-.014 0-.021 0-1.13-.013-3.435-1.446-6.213-5.448-.094-.134-7.813-10.51-15.966-22.493-3.107-4.566-9.329-5.75-13.894-2.643-4.566 3.106-5.75 9.327-2.644 13.893 7.942 11.674 15.212 21.497 16.171 22.788 8.025 11.482 16.688 13.9 22.552 13.903.005 0 .008 0 .013 0 13.016-.001 21.353-11.439 22.261-12.744.03-.044.061-.087.09-.131 17.402-25.876 26.656-71.833 27.395-75.616C521.113 109.716 477.641 77.087 474.638 74.92zM294.919 339.989c-5.522 0-10 4.478-10 10 0 5.514-4.486 10-10 10s-10-4.486-10-10v-31.806c3.644-1.294 7.083-3.303 10.081-6.04l13.996-12.781c0-.001 0-.001.001-.001 9.213-8.415 12.251-21.369 7.737-33.002-4.513-11.634-15.491-19.15-27.969-19.15h-27.693c-12.406 0-23.361 7.458-27.91 19-4.549 11.542-1.627 24.47 7.443 32.934l13.697 12.782c3.133 2.923 6.763 5.041 10.616 6.364v31.701c0 5.514-4.486 10-10 10s-10-4.486-10-10c0-5.522-4.477-10-10-10-5.523 0-10 4.478-10 10 0 16.542 13.458 30 30 30 7.677 0 14.688-2.898 20-7.657 5.311 4.759 12.323 7.657 20 7.657 16.542 0 30-13.458 30-30C304.919 344.467 300.441 339.989 294.919 339.989zM247.947 297.301l-13.697-12.782c-4.618-4.31-3.066-9.491-2.482-10.978.586-1.485 2.987-6.333 9.304-6.333h27.693c6.352 0 8.742 4.886 9.323 6.383.581 1.498 2.111 6.718-2.579 11.001l-13.996 12.782C257.692 300.864 251.733 300.835 247.947 297.301z"></path></g><g><path fill="#283954" d="M110.19 308.045c1.618-21.498-1.695-43.442-9.845-65.222-6.753-18.058-10.427-37.526-10.427-57.828 0-104.969 97.016-184.72 203.586-160.636 5.384 1.218 10.74-2.163 11.958-7.549 1.218-5.387-2.162-10.741-7.55-11.958C177.895-22.276 69.919 67.988 69.919 184.995c0 22.22 3.932 44.076 11.694 64.835 7.127 19.047 10.032 38.128 8.636 56.683-2.876 36.797 12.903 71.142 39.367 96.388 3.995 3.812 10.325 3.664 14.138-.333 3.812-3.996 3.663-10.325-.333-14.138C121.206 367.237 107.79 338.605 110.19 308.045zM406.988 74.001c-10.516-17.248-24.716-31.078-40.718-40.874-9.331-5.713-18.948-10.772-28.585-15.036-5.053-2.235-10.957.048-13.191 5.098-2.235 5.05.048 10.956 5.098 13.191 8.83 3.908 17.657 8.552 26.236 13.804 7.261 4.446 13.937 9.805 19.875 15.925.484.639 1.036 1.222 1.657 1.728 4.712 5.075 8.935 10.642 12.553 16.577 25.866 42.396 35.277 87.678 27.214 130.957-1.502 8.097-3.629 16.114-6.323 23.839-11.947 34.346-10.885 56.346-10.885 75.785 0 63.411-65.047 115-145 115-29.139 0-57.246-6.851-81.284-19.812-4.862-2.623-10.928-.806-13.548 4.056-2.621 4.861-.806 10.927 4.056 13.548 63.16 34.054 149.712 29.304 206.658-16.622 31.506-25.41 50.637-60.789 49.009-101.066-.925-21.163 2.401-42.803 9.882-64.311C447.962 193.405 442.684 132.507 406.988 74.001z"></path><path fill="#283954" d="M184.919 199.989c19.299 0 35-15.701 35-35s-15.701-35-35-35c-19.299 0-35 15.701-35 35S165.62 199.989 184.919 199.989zM184.919 149.989c8.271 0 15 6.729 15 15s-6.729 15-15 15c-8.272 0-15-6.729-15-15S176.647 149.989 184.919 149.989zM289.919 164.989c0 19.299 15.701 35 35 35s35-15.701 35-35-15.701-35-35-35S289.919 145.691 289.919 164.989zM324.919 149.989c8.271 0 15 6.729 15 15s-6.729 15-15 15c-8.272 0-15-6.729-15-15S316.647 149.989 324.919 149.989z"></path></g></g></g></g></svg>