<svg xmlns="http://www.w3.org/2000/svg" enable-background="new 0 0 510.294 510.01" viewBox="0 0 510.294 510.01" id="parrot"><g><g><g><g><path fill="#da5461" d="M325.266,219.898c-77.749,66.041-179.9,93.209-280.267,74.531
					c-5.426-1.012-10.649,2.571-11.66,8.002c-1.011,5.43,2.572,10.65,8.002,11.66c106.488,19.817,214.663-9.121,296.872-78.949
					c4.21-3.576,4.724-9.887,1.148-14.096C335.786,216.836,329.476,216.325,325.266,219.898z"></path><path fill="#da5461" d="M333.297 162.851c-27.35 24.799-58.417 44.832-92.342 59.543-5.067 2.197-7.393 8.086-5.196 13.153 2.2 5.073 8.088 7.391 13.153 5.196 35.936-15.583 68.847-36.806 97.818-63.076 4.092-3.71 4.401-10.034.691-14.125C343.713 159.451 337.387 159.144 333.297 162.851zM69.436 268.184c45.957 4.883 93.444 1.092 140.866-13.274 5.285-1.602 8.272-7.184 6.671-12.47-1.602-5.286-7.188-8.274-12.47-6.671-43.221 13.094-87.953 17.309-132.954 12.526-5.484-.586-10.417 3.395-11.001 8.888C59.966 262.675 63.944 267.6 69.436 268.184zM500.026 43.763c-2.403-4.975-8.383-7.058-13.354-4.653-4.973 2.402-7.057 8.382-4.653 13.354.152.316 15.164 31.971 4.432 60.559-3.981 10.604-11.159 19.562-21.424 26.766.341-16.354-2.924-39.722-19.959-59.923-3.561-4.223-9.869-4.758-14.091-1.198-4.223 3.561-4.759 9.869-1.198 14.091 9.529 11.3 13.377 24.226 14.658 35.383-30.876 7.947-45.149-12.667-45.737-13.545-2.99-4.643-9.177-5.983-13.822-2.994-4.644 2.99-5.983 9.179-2.994 13.822.663 1.029 6.839 10.259 19.33 17.159 13.282 7.338 28.165 8.955 43.089 6.09-.51 4.022-1.12 6.47-1.142 6.554-1.695 6.335 3.078 12.585 9.662 12.585 1.321 0 2.653-.262 3.914-.799 24.331-10.355 40.628-26.156 48.439-46.961C518.884 83.535 500.803 45.369 500.026 43.763z"></path></g><g><path fill="#283954" d="M500.294,340.139h-190.15v-52.216c18.201-21.734,30.3-47.599,36.19-77.337
					c35.064-28.762,49.118-71.541,52.727-84.548l97.773-69.79c4.893-3.493,5.628-10.503,1.53-14.931
					c-0.179-0.193-4.465-4.8-12.206-10.853C441.795-4.262,381.89-9.223,332.577,15.187c-4.949,2.45-6.976,8.449-4.525,13.399
					c2.45,4.948,8.448,6.978,13.398,4.525c43.227-21.396,95.834-16.253,133.629,14.093c-96.429,68.846-90.829,64.785-91.572,65.473
					c-1.333,1.227-2.269,2.76-2.779,4.454c-0.076,0.254-0.183,0.643-0.186,0.654c-0.093,0.404-7.798,32.896-30.351,60.609
					c0.889-26.642-11.507-52.441-33.422-69.322c-11.348-8.74-24.69-13.929-38.516-15.406c8.847-12.682,21.735-28.997,32.86-39.449
					c4.023-3.783,4.219-10.111,0.437-14.136c-3.784-4.024-10.111-4.219-14.136-0.437c-11.638,10.943-29.158,31.757-44.078,55.38
					c-5.447,1.182-10.831,2.944-16.058,5.314c-46.924,21.271-162.907,88.291-226.304,250.779
					c-2.337,5.994,1.518,12.625,7.907,13.535c0.632,0.09,6.455,0.902,16.163,1.74c-14.313,16.59-31.4,40.376-34.647,62.358
					c-3.412,23.104,15.485,41.035,41.796,38.461l-13.765,28.443c-1.591,3.287-1.264,7.181,0.854,10.155
					c2.102,2.953,5.659,4.561,9.315,4.133c18.396-2.164,65.089-11.751,101.28-53.919c14.076-16.403,24.396-35.219,30.767-56.014
					h184.966c5.522,0,10-4.478,10-10s-4.478-10-10-10h-180.17c1.292-7.409,1.945-14.127,2.239-19.87h312.612v19.87h-94.681
					c-5.522,0-10,4.478-10,10s4.478,10,10,10h104.681c5.522,0,10-4.478,10-10v-39.87
					C510.294,344.616,505.816,340.139,500.294,340.139z M25.186,444.112c-4.058-2.826-5.787-7.129-5.003-12.441
					c2.825-19.127,22.248-44.857,40.536-63.72c12.199,0.449,24.255,0.505,36.63,0.145c-12.321,23.807-33.809,62.216-42.788,74.918
					C41.283,449.605,30.515,447.825,25.186,444.112z M55.124,486.404l14.689-30.354c10.785-14.648,39.298-66.105,50.538-89.131
					c12.873-0.939,25.253-2.322,37.125-4.153C152.804,423.313,112.168,471.108,55.124,486.404z M113.244,347.361
					c-27.428,1.613-54.188,1.099-78.723-1.121c61.603-146.843,167.502-207.963,211.015-227.689
					c19.37-8.781,42.06-6.703,59.028,6.364c16.931,13.041,26.733,33.807,25.583,54.194c-2.76,48.94-21.437,87.924-55.511,115.869
					C231.517,330.341,168.674,343.965,113.244,347.361z M290.143,340.139h-51.872c18.736-8.273,36.306-18.765,51.872-32.073V340.139
					z"></path><path fill="#283954" d="M386.943,60.439c6.098,1.238,11.95-3.461,11.95-9.8c0-5.542-4.549-10.026-10.005-9.998
					c-6.361,0.033-11.043,5.841-9.794,11.948C379.785,56.305,382.865,59.673,386.943,60.439z"></path></g></g></g></g></svg>