<svg xmlns="http://www.w3.org/2000/svg" enable-background="new 0 0 510 360" viewBox="0 0 510 360" id="pet-bed"><g><g><g><g><path fill="#da5461" d="M410 180H285c-11.938 0-22.665 5.264-30 13.585C247.665 185.264 236.938 180 225 180H100c-5.522 0-10 4.477-10 10s4.478 10 10 10h125c11.028 0 20 8.972 20 20v30c0 5.523 4.477 10 10 10 5.522 0 10-4.477 10-10v-30c0-11.028 8.972-20 20-20h125c5.522 0 10-4.477 10-10S415.522 180 410 180zM235.347 160h39.307c16.469 0 30.511-13.427 30.346-30.301-.119-11.968-7.325-22.702-18.359-27.349-.547-.23-.973-.636-1.138-1.084C280.817 88.547 268.56 80 255 80s-25.817 8.547-30.502 21.266c-.165.449-.591.854-1.137 1.085-11.035 4.646-18.241 15.381-18.36 27.348C204.835 146.58 218.884 160 235.347 160zM231.124 120.782c5.641-2.376 10.066-6.97 12.142-12.604C245.067 103.287 249.783 100 255 100s9.933 3.287 11.734 8.18c2.076 5.633 6.501 10.227 12.143 12.603 3.68 1.55 6.083 5.127 6.122 9.115.057 5.568-4.82 10.102-10.346 10.102h-39.307c-5.513 0-10.403-4.522-10.346-10.104C225.04 125.909 227.443 122.332 231.124 120.782zM199.875 90h.25c5.523 0 10-4.478 10-10s-4.477-10-10-10h-.25c-5.523 0-10 4.478-10 10S194.352 90 199.875 90zM234.375 60h.25c5.523 0 10-4.478 10-10s-4.477-10-10-10h-.25c-5.523 0-10 4.478-10 10S228.852 60 234.375 60zM275.375 60h.25c5.522 0 10-4.478 10-10s-4.478-10-10-10h-.25c-5.522 0-10 4.478-10 10S269.853 60 275.375 60zM309.875 90h.25c5.522 0 10-4.478 10-10s-4.478-10-10-10h-.25c-5.522 0-10 4.478-10 10S304.353 90 309.875 90z"></path></g><g><path fill="#283954" d="M455,70c-13.285,0-25.484,4.735-35,12.605V40c0-22.056-17.944-40-40-40h-67.17
					c-5.523,0-10,4.477-10,10s4.477,10,10,10H380c11.028,0,20,8.972,20,20c0,7.022,0,172.971,0,180c0,11.028-8.972,20-20,20H130
					c-11.028,0-20-8.972-20-20c0-10.007,0-169.999,0-180c0-11.028,8.972-20,20-20h142.83c5.522,0,10-4.477,10-10s-4.478-10-10-10
					H130c-22.056,0-40,17.944-40,40v42.605C80.484,74.735,68.285,70,55,70C24.673,70,0,94.673,0,125v195c0,22.056,17.944,40,40,40
					h430c22.056,0,40-17.944,40-40V125C510,94.673,485.327,70,455,70z M490,290H120c-5.522,0-10,4.478-10,10s4.478,10,10,10h370v10
					c0,11.028-8.972,20-20,20H40c-11.028,0-20-8.972-20-20v-10h60c5.522,0,10-4.478,10-10s-4.478-10-10-10H20V125
					c0-19.299,15.701-35,35-35s35,15.701,35,35c0,14.557,0,84.638,0,95c0,22.056,17.944,40,40,40h250c22.056,0,40-17.944,40-40
					c0-10.291,0-80.585,0-95c0-19.299,15.701-35,35-35s35,15.701,35,35V290z"></path></g></g></g></g></svg>