<svg xmlns="http://www.w3.org/2000/svg" enable-background="new 0 0 510.017 510" viewBox="0 0 510.017 510" id="dog-training"><g><g><g><g><path fill="#da5461" d="M330.008 440c-5.522 0-10 4.478-10 10v50c0 5.522 4.478 10 10 10s10-4.478 10-10v-50C340.008 444.477 335.531 440 330.008 440zM255.008 270c-47.497 0-85 38.634-85 85v145c0 5.522 4.477 10 10 10s10-4.478 10-10V360h130v50c0 5.522 4.478 10 10 10s10-4.478 10-10v-55C340.008 305.214 299.116 270 255.008 270zM191.755 340c6.65-28.265 32.103-50 63.253-50 30.677 0 56.442 21.37 63.234 50H191.755zM235.355 210h39.307c16.469 0 30.511-13.427 30.346-30.301-.119-11.968-7.325-22.702-18.359-27.349-.547-.23-.973-.636-1.138-1.084C280.825 138.546 268.568 130 255.008 130s-25.817 8.547-30.502 21.266c-.165.449-.591.855-1.137 1.085-11.035 4.646-18.241 15.381-18.36 27.348C204.843 196.579 218.892 210 235.355 210zM231.132 170.782c5.641-2.376 10.065-6.97 12.142-12.604 1.802-4.892 6.518-8.179 11.734-8.179s9.933 3.287 11.734 8.18c2.076 5.633 6.501 10.227 12.143 12.602 6.291 2.649 8.354 10.893 3.223 16.077-1.977 1.996-4.69 3.141-7.446 3.141h-39.307c-5.513 0-10.403-4.522-10.346-10.104C225.048 175.909 227.451 172.332 231.132 170.782zM199.883 140h.25c5.523 0 10-4.477 10-10 0-5.522-4.477-10-10-10h-.25c-5.523 0-10 4.478-10 10C189.883 135.522 194.361 140 199.883 140zM234.383 110h.25c5.523 0 10-4.478 10-10s-4.477-10-10-10h-.25c-5.523 0-10 4.478-10 10S228.861 110 234.383 110zM275.383 110h.25c5.522 0 10-4.478 10-10s-4.478-10-10-10h-.25c-5.522 0-10 4.478-10 10S269.861 110 275.383 110zM309.883 140h.25c5.522 0 10-4.477 10-10 0-5.522-4.478-10-10-10h-.25c-5.522 0-10 4.478-10 10C299.883 135.522 304.361 140 309.883 140z"></path></g><g><polygon fill="#283954" points="122.379 166.756 122.38 166.756 122.379 166.756"></polygon><path fill="#283954" d="M323.817 97.127c-.004-.005-.007-.007-.011-.011C323.811 97.121 323.815 97.126 323.817 97.127zM122.413 166.72c0 .001-.001.001-.002.002C122.412 166.721 122.413 166.72 122.413 166.72zM122.417 166.716c0 0-.002.002-.004.004C122.416 166.717 122.417 166.716 122.417 166.716zM323.806 97.116c-.019-.021-.058-.062-.083-.087C323.739 97.045 323.766 97.073 323.806 97.116zM122.403 166.73c-.001.001-.001.001-.002.002C122.402 166.731 122.403 166.731 122.403 166.73zM323.723 97.029C323.692 96.996 323.701 97.005 323.723 97.029L323.723 97.029z"></path><path fill="#283954" d="M509.239,156.154l-50-120c-1.553-3.727-5.193-6.154-9.23-6.154H289.151L262.079,2.928
					c-3.906-3.904-10.236-3.904-14.143,0L220.865,30H60.008c-4.037,0-7.678,2.428-9.23,6.154l-50,120
					C-1.96,162.723,2.868,170,10.008,170h10v65c0,5.523,4.478,10,10,10s10-4.477,10-10v-65h75c2.803,0,5.477-1.177,7.371-3.243
					c0,0,0,0,0.001-0.001c0,0,0,0,0,0c0.009-0.01,0.016-0.018,0.022-0.023c0,0-0.001,0.001-0.001,0.001
					c0.002-0.002,0.003-0.003,0.005-0.006c-0.001,0.001-0.001,0.001-0.002,0.002c0.003-0.004,0.006-0.007,0.008-0.009
					c0,0-0.001,0.001-0.001,0.001c0.002-0.002,0.004-0.004,0.006-0.007c0.636-0.684,10.608-11.407,132.591-142.574
					c64.886,68.825,68.879,73.061,68.809,72.985c3.733,4.071,10.058,4.345,14.129,0.613c4.071-3.732,4.346-10.058,0.613-14.129
					L307.742,50h135.599l41.667,100h-85.601l-33.827-36.907c-3.732-4.072-10.057-4.348-14.129-0.615
					c-4.071,3.731-4.347,10.058-0.615,14.129l36.8,40.15c1.895,2.066,4.568,3.243,7.372,3.243h75v320h-430V275
					c0-5.522-4.478-10-10-10s-10,4.478-10,10v225c0,5.522,4.478,10,10,10h450c5.522,0,10-4.478,10-10V170h10
					C507.138,170,511.98,162.732,509.239,156.154z M110.609,150H25.008L66.675,50h135.601L110.609,150z"></path><path fill="#283954" d="M70.008 270h70c5.523 0 10-4.478 10-10v-60c0-5.523-4.477-10-10-10h-70c-5.522 0-10 4.477-10 10v60C60.008 265.522 64.486 270 70.008 270zM80.008 210h50v40h-50V210zM60.008 360c0 5.522 4.478 10 10 10h70c5.523 0 10-4.478 10-10v-60c0-5.522-4.477-10-10-10h-70c-5.522 0-10 4.478-10 10V360zM80.008 310h50v40h-50V310zM60.008 460c0 5.522 4.478 10 10 10h70c5.523 0 10-4.478 10-10v-60c0-5.522-4.477-10-10-10h-70c-5.522 0-10 4.478-10 10V460zM80.008 410h50v40h-50V410zM370.008 270h70c5.522 0 10-4.478 10-10v-60c0-5.523-4.478-10-10-10h-70c-5.522 0-10 4.477-10 10v60C360.008 265.522 364.486 270 370.008 270zM380.008 210h50v40h-50V210zM360.008 360c0 5.522 4.478 10 10 10h70c5.522 0 10-4.478 10-10v-60c0-5.522-4.478-10-10-10h-70c-5.522 0-10 4.478-10 10V360zM380.008 310h50v40h-50V310zM360.008 460c0 5.522 4.478 10 10 10h70c5.522 0 10-4.478 10-10v-60c0-5.522-4.478-10-10-10h-70c-5.522 0-10 4.478-10 10V460zM380.008 410h50v40h-50V410z"></path></g></g></g></g></svg>