<svg xmlns="http://www.w3.org/2000/svg" enable-background="new 0 0 510 510.026" viewBox="0 0 510 510.026" id="veterinary"><g><g><g><g><path fill="#da5461" d="M330 450.026c-5.522 0-10 4.478-10 10v20c0 5.522 4.478 10 10 10s10-4.478 10-10v-20C340 454.503 335.522 450.026 330 450.026zM287.5 440.026c-5.522 0-10 4.478-10 10v30c0 5.522 4.478 10 10 10s10-4.478 10-10v-30C297.5 444.503 293.022 440.026 287.5 440.026zM245 450.026c-5.523 0-10 4.478-10 10v20c0 5.522 4.477 10 10 10s10-4.478 10-10v-20C255 454.503 250.523 450.026 245 450.026zM202.5 440.026c-5.523 0-10 4.478-10 10v30c0 5.522 4.477 10 10 10s10-4.478 10-10v-30C212.5 444.503 208.023 440.026 202.5 440.026zM160 450.026c-5.523 0-10 4.478-10 10v20c0 5.522 4.477 10 10 10s10-4.478 10-10v-20C170 454.503 165.523 450.026 160 450.026zM373.144 6.203c-18.387 15.976-36.211 33.019-52.979 50.653-3.806 4.002-3.646 10.332.357 14.138 4.003 3.806 10.332 3.645 14.138-.356 16.332-17.177 33.693-33.775 51.6-49.336 2.269-1.969 4.595-1.177 5.488-.747.892.431 2.956 1.754 2.829 4.747-2.518 59.516-12.101 102.398-12.803 107.183-.884 6.041 3.807 11.471 9.908 11.46 4.88 0 9.149-3.57 9.878-8.542.579-3.71 10.45-49.046 12.999-109.255C415.488 4.181 389.747-8.216 373.144 6.203zM190.152 55.916c-19.186-19.084-44.248-41.12-54.135-49.71-16.61-14.428-42.34-2.009-41.409 19.942 1.345 31.767 4.818 63.71 10.322 94.933.568 3.248 1.228 11.079 1.945 15.96.803 5.455 5.872 9.24 11.35 8.438 5.464-.804 9.241-5.886 8.438-11.35-.632-4.285-1.321-12.435-2.034-16.51-5.354-30.368-8.731-61.428-10.038-92.317-.127-2.991 1.935-4.314 2.827-4.744.896-.432 3.218-1.22 5.483.747 9.732 8.456 34.393 30.137 53.146 48.791 3.915 3.893 10.247 3.878 14.143-.037C194.084 66.143 194.067 59.812 190.152 55.916zM294.582 253.978c-5.522 0-10 4.478-10 10 0 5.514-4.486 10-10 10-5.514 0-10-4.486-10-10v-19.025c3.644-1.295 7.083-3.303 10.081-6.042l13.996-12.781c9.214-8.414 12.252-21.368 7.739-33.002-4.513-11.633-15.491-19.15-27.97-19.15h-27.693c-12.406 0-23.361 7.458-27.91 19-4.549 11.542-1.628 24.47 7.443 32.935l13.697 12.781c3.133 2.923 6.763 5.041 10.616 6.364v18.92c0 5.514-4.486 10-10 10-5.514 0-10-4.486-10-10 0-5.522-4.477-10-10-10-5.522 0-10 4.478-10 10 0 16.542 13.458 30 30 30 7.677 0 14.688-2.898 20-7.657 5.312 4.759 12.323 7.657 20 7.657 16.542 0 30-13.458 30-30C304.582 258.456 300.104 253.978 294.582 253.978zM247.61 224.071l-13.697-12.781c-4.618-4.31-3.066-9.492-2.482-10.979.586-1.485 2.987-6.333 9.304-6.333h27.693c6.353 0 8.742 4.886 9.323 6.384.581 1.497 2.112 6.717-2.579 11.001l-13.996 12.781C257.353 227.635 251.395 227.603 247.61 224.071z"></path></g><g><path fill="#283954" d="M180 123.978c0 16.542 13.458 30 30 30s30-13.458 30-30c0-16.542-13.458-30-30-30S180 107.436 180 123.978zM220 123.978c0 5.514-4.486 10-10 10s-10-4.486-10-10c0-5.514 4.486-10 10-10S220 118.464 220 123.978zM300 93.978c-16.542 0-30 13.458-30 30 0 16.542 13.458 30 30 30s30-13.458 30-30C330 107.436 316.542 93.978 300 93.978zM300 133.978c-5.514 0-10-4.486-10-10 0-5.514 4.486-10 10-10s10 4.486 10 10C310 129.492 305.514 133.978 300 133.978z"></path><path fill="#283954" d="M50.497 283.14c1.72 5.25 7.37 8.108 12.617 6.389l54.272-17.785c30.165 43.395 84.127 62.233 137.193 62.233 18.759 0 36.791-2.263 53.597-6.726 5.338-1.418 8.517-6.894 7.099-12.231s-6.895-8.518-12.231-7.099c-15.132 4.019-31.438 6.056-48.464 6.056-45.205 0-90.666-15.501-117.034-48.839l35.568-11.656c5.248-1.72 8.108-7.369 6.389-12.617-1.72-5.248-7.369-8.109-12.617-6.389l-40.464 13.26c-2.653-5.254-4.902-10.838-6.707-16.755l53.4-17.5c5.248-1.72 8.108-7.369 6.389-12.617-1.72-5.248-7.369-8.107-12.617-6.389l-51.311 16.815c-.647-5.249-.994-10.705-.994-16.385 0-77.196 62.804-140 140-140s140 62.804 140 140c0 5.506-.333 10.881-.982 16.113l-50.484-16.544c-5.247-1.719-10.897 1.141-12.617 6.389-1.72 5.248 1.141 10.897 6.389 12.617l52.552 17.222c-1.774 5.832-3.998 11.43-6.662 16.77l-39.662-12.998c-5.247-1.719-10.897 1.141-12.617 6.389-1.72 5.248 1.141 10.897 6.389 12.617l34.93 11.447c-8.913 11.482-20.332 21.273-34.064 29.032-4.809 2.717-6.504 8.816-3.787 13.625 2.716 4.809 8.82 6.506 13.625 3.787 18.411-10.402 33.283-23.893 44.304-39.864l54.993 18.021c5.249 1.72 10.898-1.141 12.617-6.389 1.72-5.248-1.141-10.897-6.389-12.617l-51.058-16.732c2.531-5.404 4.689-11.02 6.463-16.835l38.366 12.573c5.249 1.72 10.898-1.141 12.617-6.389 1.72-5.248-1.141-10.898-6.389-12.617l-40.177-13.166c1.085-7.251 1.643-14.741 1.643-22.451 0-88.225-71.775-160-160-160s-160 71.775-160 160c0 7.809.562 15.388 1.665 22.719l-39.359 12.898c-5.248 1.72-8.108 7.369-6.389 12.617 1.72 5.249 7.37 8.108 12.617 6.389l37.565-12.31c1.781 5.81 3.948 11.423 6.495 16.825l-50.288 16.48C51.638 272.243 48.777 277.892 50.497 283.14zM500 380.026c-5.522 0-10 4.478-10 10v15h-70v-15c0-16.542-13.458-30-30-30-13.036 0-24.152 8.361-28.28 20H230c-5.523 0-10 4.478-10 10s4.477 10 10 10h130v70H150c-11.028 0-20-8.972-20-20v-30c0-11.028 8.972-20 20-20h40c5.523 0 10-4.478 10-10s-4.477-10-10-10h-40c-14.773 0-27.691 8.056-34.618 20H105c-15.824 0-29.222 10.56-33.537 25H10c-5.523 0-10 4.478-10 10s4.477 10 10 10h61.463c4.314 14.44 17.712 25 33.537 25h10.382c6.927 11.944 19.846 20 34.618 20h211.72c4.128 11.639 15.243 20 28.28 20 16.542 0 30-13.458 30-30v-15h70v15c0 5.522 4.478 10 10 10s10-4.478 10-10c0-21.952 0-68.037 0-90C510 384.503 505.522 380.026 500 380.026zM110 450.026h-5c-8.271 0-15-6.728-15-15s6.729-15 15-15h5V450.026zM400 480.026c0 5.514-4.486 10-10 10s-10-4.486-10-10v-90c0-5.514 4.486-10 10-10s10 4.486 10 10C400 411.978 400 458.062 400 480.026zM490 445.026h-70v-20h70V445.026z"></path></g></g></g></g></svg>