<svg xmlns="http://www.w3.org/2000/svg" enable-background="new 0 0 510.029 510" viewBox="0 0 510.029 510" id="pushchair"><g><g><g><path fill="#da5461" d="M359.855 170c0-5.523-4.478-10-10-10-5.514 0-10-4.486-10-10s4.486-10 10-10h20c5.514 0 10 4.486 10 10s-4.486 10-10 10C364.333 160 359.855 164.477 359.855 170s4.478 10 10 10c16.542 0 30-13.458 30-30s-13.458-30-30-30h-20c-16.542 0-30 13.458-30 30s13.458 30 30 30C355.378 180 359.855 175.523 359.855 170zM305.282 18.053c-6.449-.008-14.778-.006-17.046.019-15.702.183-38.629 1.945-56.396 15.076-2.346 1.713-28.709 21.943-20.174 59.301 2.567 13.003 8.782 34.041 16.395 44.881 1.061 1.524 6.827 9.125 16.246 9.125h.012c4.389-.003 10.809-1.718 16.469-9.874.039-.057.077-.113.115-.171.445-.67 10.953-16.528 16.392-27.216 2.505-4.922.545-10.942-4.377-13.447-4.921-2.508-10.942-.546-13.447 4.377-4.46 8.763-14.48 24.19-15.298 25.313-6.737-10.49-11.585-30.147-12.904-36.959-.023-.12-.049-.24-.076-.359-5.788-25.048 11.678-38.256 12.355-38.757.053-.037.105-.075.157-.114 14.63-10.826 36.522-11.081 44.751-11.178 2.996-.029 17.137-.017 16.813-.017 5.521 0 9.997-4.471 10.003-9.99C315.278 22.54 310.805 18.059 305.282 18.053zM488.16 33.147c-17.768-13.131-40.694-14.894-56.409-15.076-2.255-.024-10.585-.024-17.033-.019-5.522.006-9.996 4.487-9.99 10.01.006 5.52 4.482 9.991 10 9.99 1.188 0 14.031-.01 16.804.017 8.241.097 30.134.352 44.764 11.178.052.039.036.027.089.065.746.55 18.212 13.758 12.424 38.806-.027.116-.053.237-.075.354-1.32 6.816-6.168 26.474-12.905 36.964-1.171-1.609-11.091-17.048-15.298-25.313-2.503-4.922-8.524-6.883-13.447-4.377-4.922 2.505-6.882 8.525-4.377 13.447 5.438 10.688 15.946 26.546 16.392 27.216 3.786 5.724 9.594 10.04 16.584 10.045h.012c9.418 0 15.185-7.601 16.246-9.125 7.62-10.814 13.847-31.973 16.396-44.881C516.869 55.091 490.506 34.86 488.16 33.147z"></path><g><path fill="#283954" d="M500,253.55c5.522,0,10-4.478,10-10c0-15.073,0-58.535,0-73.55c0-5.523-4.478-10-10-10h-49.804
					c-0.438-2.887-1.07-5.749-1.905-8.576c8.577-15.189,13.089-32.341,13.089-49.904C461.38,45.541,415.834,0,359.85,0
					c-22.004,0-42.941,6.925-60.551,20.028c-41.339,30.769-52.847,87.219-27.874,131.392c-0.835,2.819-1.461,5.673-1.898,8.58
					c-9.172,0-49.517,0-62.996,0c-64.489-80.676-68.121-85.225-68.215-85.336C130.685,65.345,119.404,60,107.37,60H30
					C13.425,60,0,73.425,0,90c0,16.542,13.458,30,30,30h58.2c6.109,0,11.808,2.74,15.628,7.513L129.79,160H80
					c-5.522,0-10,4.477-10,10c0,7.085,0,113.405,0,120c0,38.599,31.402,70,70,70h56.275l-49.777,43.165
					c-4.172,3.618-4.621,9.934-1.003,14.107c3.624,4.178,9.938,4.616,14.106,1.003c25.147-21.807,78.061-67.691,104.306-90.45
					l12.543,15.697l-97.439,84.41c-4.174,3.616-4.627,9.932-1.011,14.106c3.605,4.161,9.92,4.637,14.106,1.011l96.839-83.89
					l67.062,83.923c3.443,4.307,9.735,5.022,14.055,1.57c4.315-3.448,5.018-9.74,1.57-14.055l-127.94-160.109
					c-3.448-4.314-9.739-5.019-14.055-1.57c-4.315,3.448-5.018,9.74-1.57,14.055l23.345,29.215L219.339,340H140
					c-27.57,0-50-22.43-50-50v-70h87.739l25.36,31.733c3.446,4.313,9.737,5.019,14.055,1.568c4.314-3.447,5.017-9.74,1.568-14.055
					L119.446,115.02C111.805,105.475,100.416,100,88.2,100H30c-5.514,0-10-4.486-10-10c0-5.52,4.479-10,10-10h77.37
					c5.998,0,11.622,2.658,15.44,7.296c24.62,30.801,249.534,312.173,263.918,330.168c3.44,4.301,9.728,5.023,14.056,1.567
					c4.313-3.449,5.016-9.741,1.567-14.056L366.4,360H440c38.598,0,70-31.402,70-70v-6.45c0-5.522-4.478-10-10-10s-10,4.478-10,10
					V290c0,27.57-22.43,50-50,50h-89.586l-95.922-120H490v23.55C490,249.072,494.478,253.55,500,253.55z M161.756,200H90v-20h55.773
					L161.756,200z M311.239,36.072C325.37,25.558,342.18,20,359.85,20c44.956,0,81.53,36.569,81.53,81.52
					c0,15.409-4.32,30.418-12.493,43.404c-1.672,2.654-2,5.941-0.887,8.873c0.774,2.041,1.389,4.113,1.856,6.203H289.852
					c0.464-2.079,1.078-4.128,1.863-6.19c1.119-2.937,0.792-6.23-0.883-8.889C268.313,109.164,277.276,61.352,311.239,36.072z
					 M238.505,200l-15.987-20H490v20H238.505z"></path><path fill="#283954" d="M329.859 89.479c5.383 0 10-4.39 10-10.01 0-5.42-4.423-10.006-9.996-9.988-5.586.017-10.004 4.509-10.004 9.988C319.859 85.05 324.414 89.479 329.859 89.479zM389.859 89.479c6.328 0 11.036-5.862 9.801-11.96-.99-4.838-5.178-8.042-9.802-8.044-5.457-.002-9.999 4.413-9.999 9.995C379.859 85.06 384.429 89.479 389.859 89.479z"></path></g><path fill="#da5461" d="M405 400c-30.327 0-55 24.673-55 55s24.673 55 55 55 55-24.673 55-55S435.327 400 405 400zM405 490c-19.299 0-35-15.701-35-35s15.701-35 35-35 35 15.701 35 35S424.299 490 405 490zM145 400c-30.327 0-55 24.673-55 55s24.673 55 55 55 55-24.673 55-55S175.327 400 145 400zM145 490c-19.299 0-35-15.701-35-35s15.701-35 35-35 35 15.701 35 35S164.299 490 145 490z"></path></g></g></g></svg>